<svg xmlns="http://www.w3.org/2000/svg" width="100" height="100" viewBox="0 0 100 100">
  <g id="Group_1" data-name="Group 1" transform="translate(-503 -117)">
    <rect id="Rectangle_11" data-name="Rectangle 11" width="100" height="100" rx="10" transform="translate(503 117)" fill="#fff"/>
    <path id="Rectangle_11_-_Outline" data-name="Rectangle 11 - Outline" d="M10,4a6.007,6.007,0,0,0-6,6V90a6.007,6.007,0,0,0,6,6H90a6.007,6.007,0,0,0,6-6V10a6.007,6.007,0,0,0-6-6H10m0-4H90a10,10,0,0,1,10,10V90a10,10,0,0,1-10,10H10A10,10,0,0,1,0,90V10A10,10,0,0,1,10,0Z" transform="translate(503 117)" fill="#3c3c3c"/>
    <rect id="Rectangle_13" data-name="Rectangle 13" width="98" height="4" transform="translate(504 165)" fill="#3c3c3c"/>
    <rect id="Rectangle_12" data-name="Rectangle 12" width="98" height="4" transform="translate(555 118) rotate(90)" fill="#3c3c3c"/>
    <path id="Rectangle_12_-_Outline" data-name="Rectangle 12 - Outline" d="M1,1V3H97V1H1M0,0H98V4H0Z" transform="translate(555 118) rotate(90)" fill="#3c3c3c"/>
  </g>
</svg>
